<?xml version="1.0" encoding="UTF-8"?>
<svg width="16px" height="16px" version="1.1" viewBox="0 0 16 16" xmlns="http://www.w3.org/2000/svg">
 <g>
  <rect x="10.433" y="12.789" width="3.1666" height="2.5048" fill="#fefefe"/>
  <rect x="10.477" y="8.7166" width="2.9372" height="3.6447" fill="#fefefe"/>
  <path d="m12 1v6h3v-6zm-4 3v3h3v-3zm-4 3v8h3v-8zm-4 3v5h3v-5z" fill="#9a9996"/>
  <path class="warning" d="m9.5 8c-0.83203 0-1.5 0.66797-1.5 1.5v5c0 0.83203 0.66797 1.5 1.5 1.5h5c0.83203 0 1.5-0.66797 1.5-1.5v-5c0-0.83203-0.66797-1.5-1.5-1.5zm1.5 1h2v2.5s0 0.5-0.5 0.5h-1c-0.5 0-0.5-0.5-0.5-0.5zm0.5 4h1c0.27734 0 0.5 0.22266 0.5 0.5v1c0 0.27734-0.22266 0.5-0.5 0.5h-1c-0.27734 0-0.5-0.22266-0.5-0.5v-1c0-0.27734 0.22266-0.5 0.5-0.5z" fill="#b8131a"/>
 </g>
</svg>
